<?xml version="1.0" encoding="utf-8"?>
<!-- Generator: Adobe Illustrator 27.7.0, SVG Export Plug-In . SVG Version: 6.00 Build 0)  -->
<svg version="1.1" id="Layer_2_00000078037903112155259760000011959640722491621267_"
	 xmlns="http://www.w3.org/2000/svg" xmlns:xlink="http://www.w3.org/1999/xlink" x="0px" y="0px" viewBox="0 0 225.9 156"
	 style="enable-background:new 0 0 225.9 156;" xml:space="preserve">
<style type="text/css">
	.st0{clip-path:url(#SVGID_00000181778560848892056360000010701321108303810177_);}
	.st1{fill:#FCF09E;}
	.st2{fill:#EBEEA8;}
	.st3{fill:#FFFFFF;}
	.st4{fill:none;}
</style>
<g id="Layer_3">
	<g>
		<g>
			<defs>
				<rect id="SVGID_1_" x="1.7" y="1.3" width="105.5" height="105"/>
			</defs>
			<clipPath id="SVGID_00000013154887806695155040000010676347251155432078_">
				<use xlink:href="#SVGID_1_"  style="overflow:visible;"/>
			</clipPath>
			<g style="clip-path:url(#SVGID_00000013154887806695155040000010676347251155432078_);">
				<path class="st1" d="M98.3,72.6c-1.9-1-4.2-0.3-5.6,1.5c-2.1,2.6-3.4,5.6-5.6,8.2c-2.5,3-5.1,5.8-8.3,7.9
					c-3.6,2.4-7.5,4.1-11.5,5.5c-7.2,2.5-14.6,2.3-22,0.9c-5.1-1-9.9-3-14.3-5.8c-2.6-1.7-5.3-3.4-7.5-5.8
					c-3.4-3.8-7.3-7.2-10.9-10.7c-2.1-2-5.1-1.5-6.6,0.9c-1.2,2-1,3.7,0.8,5.6c3.7,3.9,7.3,7.8,11.3,11.3c3.6,3.3,7.6,6,11.9,8.3
					c7.7,4.1,15.9,5.6,24.6,5.8c2.1-0.2,4.3-0.4,6.4-0.5c6.3-0.3,12-2.5,17.5-5.2c5.8-2.8,10.7-7,14.9-11.9c1.4-1.6,3-3.2,3.9-5.2
					c0.9-1.9,2.2-3.5,2.9-5.5C101,75.8,100.2,73.6,98.3,72.6"/>
				<path class="st2" d="M50.7,9.2c3.7,3.6,7.2,7.3,10.9,10.9c4.4,4.3,8.9,8.6,12.9,13.3C77.7,37,79.9,41,81,45.7
					c0.5,2.1,0.9,4.3,1,6.5c0.1,2.9-0.6,5.7-1.5,8.5c-0.8,2.2-1.3,4.5-2.7,6.5c-1.7,2.4-3.4,4.8-5.7,6.7c-2.8,2.3-5.9,4.2-9.3,5.4
					c-3.4,1.2-4.2,2-4.2,4.9c0,2.8,2.5,4.7,5.2,4.1c1.1-0.3,2.3-0.6,3.3-0.9c4-1.4,7.5-3.7,10.7-6.4c2.9-2.4,5.4-5,7.3-8.2
					c3.6-6.1,5.9-12.5,5.5-19.7c-0.1-3-0.2-6-0.9-9c-1.9-7.5-5.6-14-11.1-19.5c-2.9-2.9-5.8-5.7-8.6-8.6c-2.1-2.1-4.2-4.3-6.3-6.5
					c-1.7-1.7-3.4-3.3-5.1-4.9c-0.8-0.8-1.3-1.7-2.3-2.3c-2-1.2-5-1.5-6.8,1.1C48.4,5,48.6,7.1,50.7,9.2C50.6,9.1,50.6,9.1,50.7,9.2
					"/>
				<path class="st1" d="M13.6,43.1c7,7,14,14.1,21.2,21c1.8,1.7,3.5,3.4,5.4,4.9c5.8,4.5,12.3,5.6,19.3,3.6c3.8-1.1,7-3.3,9.7-6.3
					c4.8-5.4,6.7-11.7,5.3-18.8c-1-4.9-3.7-9-7.1-12.6c-0.6-0.7-1.5-1.1-2.4-1.3c-2.8-0.8-5.7,1.5-5.6,4.3c0,1.8,1.2,3.1,2.3,4.2
					c2.6,2.6,4.1,5.7,3.9,9.5c-0.1,2.4-0.1,4.9-1.8,6.9c-1.8,2.1-3.9,3.8-6.6,4.8c-4.7,1.6-10,0.6-13.4-3c-2.6-2.7-5.2-5.4-7.9-8.1
					c-4.7-4.7-9.4-9.5-14.2-14.2c-2.3-2.2-4.4-4.6-6.9-6.6c-1.5-1.3-3.5-1.4-5.1-0.5c-2.6,1.6-3,4.8-0.8,7.3
					C10.6,40,12.1,41.5,13.6,43.1"/>
				<path class="st1" d="M105.7,40.6c-1.4-5.6-3.6-10.8-6.7-15.7c-1.4-2.1-3-4.1-4.7-6.1c-3.8-4.5-8.2-8.5-12.3-12.6
					c-1.2-1.2-2.6-2.1-4.5-1.6c-3.4,1-5.1,4.1-2.1,7.6c1.9,2.3,4.1,4.3,6.2,6.4c2.9,2.8,5.7,5.6,8.1,8.7c3.2,4.1,5.3,8.6,6.9,13.5
					c0.8,2.4,1,4.8,1.2,7.3c0.2,2.9,0.3,5.8,0,8.8c-0.3,3.4,0.8,5.2,3.7,5.7c2.9,0.5,5-1,5.3-3.6c0.2-2.2,0.2-4.3,0.2-6.8
					C107.4,48.5,106.7,44.5,105.7,40.6"/>
				<path class="st2" d="M25.4,78c3.5,3.4,7.3,6.5,11.9,8.5c2,0.9,4.2,1.6,6,1.9c2.5,0,3.9-1,4.5-3c0.7-2.3-0.1-4.2-2.4-5.2
					c-0.8-0.4-1.7-0.6-2.5-1c-2.5-1.1-4.9-2.3-7-3.9c-4.4-3.6-8.4-7.6-12.4-11.6c-4.6-4.6-9.2-9.1-13.8-13.7c-0.4-0.4-0.8-0.7-1.2-1
					c-1.4-1-3.8-0.9-5.1,0.2c-1.5,1.2-2,3-1.2,4.8c0.4,1.1,1.2,2,2,2.8C11.2,63.8,18.2,70.9,25.4,78"/>
				<path class="st1" d="M25.5,31.2c1.9,2,3.8,4,5.8,5.8c1.6,1.5,3.1,3.1,4.7,4.6c4.1,4.2,8.3,8.3,12.5,12.5c1,1,2.3,1.6,3.8,1.3
					c1.8-0.3,3.2-1.3,3.8-3.1c0.7-2,0-3.8-1.5-5.2c-10-10-20.1-20.1-30.1-30.1c-1-1-2.2-1.7-4.1-1.6c-1.4,0-3.1,1.1-3.9,2.9
					c-0.7,1.8-0.3,3.4,1.1,4.8C20.2,25.8,22.9,28.4,25.5,31.2"/>
				<path class="st2" d="M36.1,16.9c3.8,3.8,7.5,7.6,11.3,11.4c1,1,2.1,1.9,3.6,1.6c2-0.4,3.6-1.5,4.2-3.5c0.5-1.8,0.2-3.5-1.2-4.9
					c-4.6-4.6-9.2-9.2-13.8-13.8c-1-1-2.1-1.4-3.5-1.4c-0.9-0.1-1.7,0.1-2.5,0.7c-2,1.4-2.5,4-1.4,6.2
					C33.5,14.7,34.9,15.7,36.1,16.9"/>
			</g>
		</g>
		<g>
			<path class="st3" d="M111.7,53.9c0.3-0.3,0.5-0.9,0.4-1.5c-0.1-0.9,0-1.8,0-2.7v-0.9c0-2.2-0.2-2.5-2.3-2.6
				c-0.1-0.1-0.2-0.1-0.3-0.1s-0.2,0-0.3,0.1l-3.5-0.1c-2.2,0-4.4,0-6.6,0c-0.8,0-1.2-0.4-1.2-1.2c0-3.7,0-7.4,0-11.1v-4.4
				c0-0.4-0.1-0.7-0.4-0.8c-0.2-0.1-0.5-0.1-0.7,0l-6.9-0.1c-0.3,0-0.4,0-0.6,0.1c-0.1,0.1-0.3,0.2-0.3,0.6l0,0.5c0,0.4,0,0.7,0,1.1
				v6.3c0,17.8,0,35.5,0,53.3c0,0.5-0.1,0.8-0.2,1s-0.4,0.1-0.7,0.1l-1,0.1c-0.1-0.1-0.2-0.1-0.3-0.1c-0.1,0-0.2,0-0.3,0.1h-2
				c-1.6,0-3.1,0-4.6,0c-5.7,0-11.3,0-17-0.1l-6.6,0c-0.1-0.1-0.2-0.1-0.3-0.1c-0.1,0-0.2,0-0.3,0.1c-0.7,0-1.1,0.2-1.4,0.5
				c-0.3,0.3-0.4,0.7-0.3,1.2l-0.1,0.1l0.1,0.3c0,0.1,0,0.1,0.1,0.2l0,3.5c0,1.9,0.2,2.2,2.2,2.2h31c0.1,0.1,0.2,0.1,0.3,0.1
				c0.1,0,0.2,0,0.3-0.1h0.7l0.4,0.2h0.1c0,0.1,0,0.1,0,0.2c0,0.1,0,0.2,0,0.3c0,0.9,0,1.8,0,2.6c0,1.6,0,3.2,0,4.8
				c0,0.5-0.1,0.7-0.1,0.7s-0.2,0.1-0.8,0.1c-8.5,0-16.9,0-25.4,0h-5.8c-0.4,0-0.8,0-1.3,0.1c-1.1,0.1-1.6,0.7-1.6,1.8c0,4,0,8,0,12
				v2.9c0,3.6,3,7.6,7.5,7.6c0.7,0,1.5,0,2.2,0.1c1.6,0,3.2,0.1,4.8,0.1c3.4,0,6.9,0,10.2,0c2.2,0,4.4,0,6.6,0c4.2,0,8.4,0,12.6-0.2
				l0.5-0.2c0.4-0.2,0.6-0.5,0.6-1.1l0-5.4l-0.5-0.4c-0.2-0.2-0.4-0.2-0.5-0.2c-0.1,0-0.3,0-0.5,0.1c-3.2,0-6.4,0-9.6,0
				c-8.1,0-16.5,0.1-24.7-0.1c-0.2-0.4-0.2-0.8-0.2-1.1c0-0.9,0-1.8,0-2.6c0-1,0-2.1,0-3.1c0-1.3,0-2.1,0.3-2.3
				c0.3-0.2,1.1-0.2,2.4-0.2c3.5,0,7,0,10.5,0c6.5,0,13.2-0.1,19.8,0.1c0.5,0,1.1,0,1.6-0.5c0.3-0.3,0.5-0.8,0.5-1.5
				c0-17,0-33.9,0-50.9v-7.1c0-0.9,0.5-1.3,1.4-1.3c3.3,0,6.6,0,9.9,0c0.3,0,0.6,0,0.9,0C110.6,54.4,111.3,54.3,111.7,53.9
				L111.7,53.9z"/>
			<path class="st3" d="M71.3,53.9c0.4-4.7,0.3-9.7-3.2-14.2c-3.1-4-6.9-6.6-11.6-8c-0.6-0.2-0.7-0.4-0.7-0.8c0-0.7,0-1.3-0.1-1.9
				c0-0.3-0.1-0.6-0.1-0.9C55.4,27.4,55,27,54.3,27l-0.9,0c-1,0-2.1,0-3.1,0c-0.2,0-0.5,0-0.8,0c-0.7-0.1-1.7-0.2-2.4,0.7
				c-0.5,0.7-0.4,1.5-0.3,2.2c0,0.4,0.1,0.7,0,1c-0.1,0.6-0.2,0.7-0.5,0.8c-1.8,0.4-3.5,1.3-5.1,2.3C34,38.2,30.8,43.8,31,51.4
				c-0.2,3.1,0.8,6.5,2.7,9.3c4.4,6.5,10.2,9.8,17.5,9.8c1.2,0,2.4-0.1,3.6-0.3C62.1,69.3,70.5,62.5,71.3,53.9L71.3,53.9z
				 M62.7,48.7c0.1,5.1-1,8.9-3.2,11.1c-1.9,1.9-4.5,2.8-8.1,2.8c-2.6,0.3-5.3-0.5-7.5-2.5c-2.8-2.5-4.4-6.2-4.4-10.1
				c0-2.4,1.4-5.2,3.7-7.5c2.3-2.3,5.2-3.7,7.5-3.7c0,0,0.1,0,0.1,0C58,39,62.7,44.8,62.7,48.7L62.7,48.7z"/>
			<path class="st3" d="M130.3,33.2c1.3,0,2.5,0,3.8,0c1.2,0,2.4,0,3.7,0c0.2,0,0.4,0,0.4,0c0,0.1-0.1,0.2-0.2,0.3
				c-0.8,1-1.3,2.2-1.8,3.3c-0.2,0.4-0.4,0.8-0.6,1.3c-1.4,2.8-1.5,6-0.2,9.5c2,5.7,6.3,9.6,12.7,11.4c2,0.6,3.9,0.8,5.8,0.8
				c5.2,0,10-2.1,14.4-6.4c2.4-2.3,3.8-5.5,4.1-9.6c0.4-4-1.4-7.3-3.1-10.1c-0.1-0.2-0.3-0.3-0.4-0.4c-0.1-0.1-0.2-0.2-0.2-0.1
				c0-0.1,0.3,0,0.5,0c0.2,0,0.3,0,0.5,0c1,0,2,0,2.9,0c1.6,0,3.2,0,4.8-0.2c1.4-0.2,2-0.9,2-2.3c0-0.7,0-1.4,0-2c0-0.4,0-0.7,0-1
				c0-2.4-0.2-2.6-2.5-2.6c-2.8,0-5.5,0-8.3,0c-3.2,0-6.4,0-9.6,0c-0.1,0-0.2,0-0.3,0c-0.6,0-0.6,0-0.6-0.3l0-1.1c0-0.6,0-1.3,0-1.9
				c0-0.4,0-0.8,0-1.1c0.1-0.9,0.1-1.8-0.2-2.7c-0.1-0.3-0.3-0.5-0.4-0.5c-0.1,0-0.3-0.1-0.5,0l-1-0.1l-4.2,0.1
				c-2.3,0.1-2.6,0.4-2.6,2.7c0,0.6,0,1.2,0.1,1.8c0.1,1,0.1,2-0.1,3l0,0c-0.1,0-0.3,0-0.5,0c-0.1,0-0.2,0-0.3,0h-8.1
				c-3.2,0-6.4,0-9.6,0c-1.2,0-1.9,0-2.3,0.4s-0.4,1.1-0.4,2.3v3C127.8,32.7,128.2,33.2,130.3,33.2L130.3,33.2z M145.9,37.5
				c2-2,4.2-3,6.7-3c0.2,0,0.5,0,0.7,0c0.4,0,0.8,0,1.2,0.1c1.3,0.1,2.5,0.1,3.7,0.7c3.3,1.6,4.9,3.9,5.1,7.3
				c0.2,3.4-0.8,5.8-3.1,7.5c-2.1,1.5-4.4,2.1-7.8,2c-2.1-0.2-6-1.2-8-5.6C142.8,43.3,143.4,40.1,145.9,37.5z"/>
			<path class="st3" d="M175.3,87.5c-0.5-0.8-1.2-0.8-1.8-0.8l-0.1,0.5v-0.5c-13.3,0-26.6,0-39.9,0h-0.2c-0.4,0-1.2,0-1.6,0.8
				l-0.1,0.4c-0.2,1.6-0.2,3.3-0.1,4.9c0,0.6,0,1.2,0,1.8c0,2.1,0,4.3,0,6.4c-0.1,4.4-0.1,9,0.2,13.5c0.3,3.7,2.9,6.5,6.6,7.1
				c1.1,0.2,2.2,0.2,3.5,0.2h0c7.5,0,15,0,22.6,0h0.1c1.4,0,2.8-0.1,4.1-0.3c2.7-0.3,5.8-3.2,6.2-5.5c0.3-1.9,0.4-3.9,0.4-5.7
				c0-5.6,0-11.2,0-16.8v-5.4L175.3,87.5L175.3,87.5L175.3,87.5z M140.4,112.9l0-4.9c0-3.9,0-7.8-0.1-11.8c0-0.5,0.1-0.8,0.2-0.9
				c0.2-0.2,0.5-0.3,1.1-0.2c2.7,0,5.5,0.1,8.2,0.1h2.8c4.2,0,8.6,0,12.9,0c0.4,0,0.7,0.1,0.8,0.2s0.1,0.3,0.1,0.8
				c0,5.3,0,10.8,0.1,16.9c0,0.3-0.1,0.3-0.1,0.3s-0.1,0.1-0.3,0.1c-0.4,0-0.8,0-1.2,0H164h-6.4c-5,0-10,0-15,0c-0.5,0-1,0-1.4,0
				l-0.6,0l-0.1-0.1C140.5,113.2,140.4,113.1,140.4,112.9L140.4,112.9z"/>
			<path class="st3" d="M197.6,71.7c0-0.4,0-0.8,0-1.2l0,0c-0.1-1.7-0.6-2.2-2.3-2.2c-0.9,0-1.7,0-2.6,0l-2.1,0l-0.4,0
				c-0.2,0-0.5,0-0.7,0c-24.7,0-49.5,0-74.2,0c-0.3,0-0.5,0-0.8,0l-0.4,0c-0.3,0-0.5,0-0.8,0c-0.6,0-1.1,0-1.7,0
				c-0.6-0.1-1.1,0.1-1.5,0.4c-0.4,0.3-0.5,0.8-0.5,1.6l0,0.9c0,0.7,0,1.4,0,2.1c0,2.9,0.2,3.2,2.9,3.3c0.1,0.1,0.2,0.1,0.3,0.1
				c0,0,0,0,0,0c0.1,0,0.2,0,0.3-0.1l6,0c4.5,0,9.1,0,13.6,0c21.5,0,40.9,0,60.6-0.1c0.4,0,0.8,0,1.1,0c2.6,0.1,2.8-0.4,3-4v-0.3
				L197.6,71.7L197.6,71.7z"/>
		</g>
		<path class="st3" d="M215.2,102.9h-7.8v1.9h7.8V102.9z M208.4,116.7h4.8c-0.3-0.3-0.7-0.8-1.2-1.2c-0.4-0.4-0.9-0.8-1.3-1.1
			c-0.3,0.4-0.6,0.9-1,1.2C209.3,116.1,208.8,116.4,208.4,116.7z M206.9,115.8v0.9h1c-0.1-0.1-0.3-0.3-0.5-0.5
			C207.2,116.1,207.1,116,206.9,115.8z M206.9,115.3c0.4-0.3,0.8-0.6,1.1-0.9c0.4-0.4,0.7-0.8,1-1.2s0.5-0.9,0.7-1.4
			c0.2-0.5,0.3-0.9,0.4-1.4h-2.8c-0.2,0.2-0.4,0.4-0.5,0.6c-0.1,0.1-0.1,0.2-0.2,0.2h0.3L206.9,115.3L206.9,115.3z M197.2,117.6h3.5
			v-4.1h-3.5V117.6z M215.2,99h-7.8v1.9h7.8V99z M218.2,92.5h-23.9c-3.4,0-6.1,2.7-6.1,6.1v49.7c0,3.4,2.7,6.1,6.1,6.1h23.9
			c3.4,0,6.1-2.7,6.1-6.1V98.6C224.3,95.2,221.6,92.5,218.2,92.5z M205.1,106.9V96.9h12.6v10.1h-8c-0.1,0.3-0.3,0.5-0.4,0.8
			c-0.1,0.2-0.2,0.4-0.3,0.5h10v1.1c-0.1,1.9-0.2,3.4-0.3,4.7s-0.2,2.4-0.3,3.2s-0.2,1.5-0.4,2c-0.1,0.5-0.3,0.9-0.5,1.1
			c-0.3,0.3-0.5,0.5-0.8,0.7c-0.3,0.1-0.6,0.2-1,0.2c-0.3,0-0.6,0-1.1,0c-0.1,0-0.2,0-0.3,0c-0.6,0-1.2,0-1.8-0.1h-0.2l0-0.2
			c0-0.2-0.1-0.5-0.2-0.9c-0.1-0.3-0.2-0.6-0.4-0.8l-0.3-0.4l0.5,0c0.6,0.1,1.2,0.1,1.7,0.1c1,0,1.4,0,1.6,0c0.1,0,0.2-0.1,0.3-0.2
			c0.1-0.1,0.2-0.3,0.3-0.7c0.1-0.4,0.2-0.9,0.3-1.6c0.1-0.7,0.2-1.6,0.2-2.6c0.1-1,0.1-2.2,0.2-3.6h-5l0.8,0.2l-0.1,0.2
			c-0.1,0.3-0.2,0.7-0.3,1.1c-0.1,0.3-0.2,0.6-0.4,0.9c0.2,0.2,0.5,0.4,0.8,0.6c0.3,0.2,0.6,0.5,0.9,0.7c0.3,0.2,0.6,0.5,0.8,0.7
			s0.5,0.4,0.6,0.6l0.2,0.2l-1.2,1.2h1.5v2.2h-8.2v1.5h-2.3v-7.3c-0.1,0.1-0.1,0.1-0.2,0.2c-0.2,0.2-0.4,0.3-0.6,0.5l-0.2,0.1
			l-0.1-0.2c-0.1-0.1-0.2-0.3-0.4-0.5c-0.1-0.1-0.1-0.1-0.2-0.2v6.7h-5.6v1.3h-2.2v-9.6l7.8,0c0.8-0.6,1.5-1.3,2.2-2
			c0.7-0.8,1.3-1.6,1.9-2.5L205.1,106.9L205.1,106.9z M202.9,107.8v2.1h-7.8v-2.1H202.9z M195.1,106.2v-2.1h7.8v2.1H195.1z
			 M195.3,96.9h7.5V99h-7.5V96.9z M193.9,100.5h9.7v2.1h-9.7V100.5z M219.4,148.2c-0.2,0.2-0.4,0.5-0.6,0.8
			c-0.2,0.4-0.4,0.6-0.6,0.9l-0.1,0.2l-0.2-0.1c-1-0.7-1.9-1.5-2.6-2.5c-0.7-0.9-1.3-1.9-1.8-2.9c-0.5-1-0.8-1.9-1.1-2.8
			c-0.1-0.4-0.2-0.7-0.2-1c-0.1,0.3-0.2,0.7-0.3,1c-0.3,0.9-0.7,1.8-1.2,2.8c-0.5,1-1.2,1.9-2,2.9c-0.8,0.9-1.8,1.8-3,2.5l-0.2,0.1
			l-0.1-0.2c-0.1-0.1-0.1-0.2-0.2-0.4c-0.1-0.1-0.2-0.3-0.3-0.4c-0.1-0.1-0.2-0.3-0.3-0.4c-0.1-0.1-0.2-0.2-0.3-0.3l-0.2-0.2
			l0.3-0.2c0.6-0.4,1.2-0.8,1.7-1.2c-0.9,0.2-1.9,0.4-2.9,0.6l-2.9,0.6c-0.9,0.2-1.9,0.4-2.8,0.6c-0.9,0.2-1.7,0.3-2.5,0.5l-0.2,0
			l-0.5-2.4l0.2,0c0.7-0.1,1.4-0.2,2.2-0.4c0.8-0.1,1.5-0.3,2.4-0.4v-7.6h-4.6v-2.2h4.6v-2.3h-2.8v-1.1c-0.3,0.3-0.7,0.6-1,0.9
			l-0.2,0.2l-0.1-0.2c-0.1-0.2-0.3-0.4-0.6-0.7c-0.3-0.3-0.5-0.5-0.7-0.6l-0.3-0.2l0.2-0.2c1.3-1,2.5-2.1,3.4-3.4
			c0.9-1.2,1.7-2.4,2.2-3.4l0.1-0.1h2.1l0.1,0.1c0.5,0.4,0.9,0.9,1.4,1.4c0.5,0.5,0.9,1,1.4,1.6c0.4,0.5,0.9,1,1.3,1.5
			c0.4,0.5,0.7,0.9,1,1.4l0.1,0.2l-1.8,1.8l-0.2-0.2v1.3h-3.3v2.3h3.8l0.1-0.1c0.4-0.7,0.8-1.4,1.1-2.2c0.3-0.8,0.6-1.7,0.9-2.7
			c0.3-0.9,0.5-1.9,0.7-3c0.2-1,0.4-2.1,0.5-3.2l0-0.2l2.5,0.4l0,0.2c-0.1,0.8-0.3,1.6-0.4,2.3c-0.1,0.7-0.3,1.3-0.4,2h7l0.4-0.1
			l1.6,0.6l0,0.2c-0.1,0.6-0.2,1.2-0.4,1.9c-0.1,0.6-0.3,1.3-0.5,1.9c-0.2,0.6-0.4,1.2-0.5,1.8c-0.2,0.6-0.4,1.1-0.6,1.6l-0.1,0.2
			l-1.9-1l0.1-0.2c0.2-0.6,0.5-1.4,0.7-2.2c0.2-0.8,0.4-1.5,0.5-2.3h-2.9v3.6c0,0.4,0,0.8,0.1,1.4s0.2,1.2,0.3,2
			c0.2,0.7,0.4,1.5,0.7,2.3c0.3,0.8,0.7,1.6,1.1,2.4s1,1.6,1.6,2.3l0,0c0.6,0.7,1.4,1.4,2.2,1.9l0.2,0.1L219.4,148.2L219.4,148.2z
			 M195,139.4l1.9-0.5l0.1,0.2c0.2,0.4,0.3,0.8,0.5,1.3c0.1,0.4,0.3,0.9,0.4,1.3s0.2,0.9,0.3,1.3c0.1,0.4,0.1,0.8,0.1,1.2l0,0.2
			l-2,0.5l0-0.3c0-0.3-0.1-0.7-0.1-1.1c-0.1-0.4-0.1-0.8-0.3-1.3c-0.1-0.4-0.2-0.9-0.4-1.3c-0.1-0.4-0.2-0.9-0.4-1.3L195,139.4
			L195,139.4z M203.8,131c-0.3-0.4-0.7-0.9-1-1.4s-0.8-0.9-1.2-1.4c-0.3-0.4-0.7-0.8-1-1.1c-0.4,0.7-0.9,1.4-1.5,2.1
			c-0.5,0.7-1.1,1.4-1.8,2.1h6.7C204,131.2,203.9,131.1,203.8,131L203.8,131z M208.5,134.7c-0.4,0.9-0.8,1.8-1.3,2.6l-0.2,0.3
			l-0.2-0.2c-0.2-0.2-0.4-0.4-0.8-0.6c-0.1-0.1-0.2-0.1-0.3-0.2v1.6h-4.5v7.1c0.7-0.1,1.4-0.3,2.1-0.4c0.8-0.1,1.6-0.3,2.4-0.5
			l0.3-0.1l0.2,2.1c0.6-0.5,1.1-1.1,1.5-1.6c0.9-1.2,1.6-2.4,2-3.6c0.5-1.2,0.8-2.3,0.9-3.4c0.1-1,0.2-1.9,0.2-2.4v-3.6h-1.4
			C209.2,132.8,208.9,133.8,208.5,134.7L208.5,134.7z M205.6,139.5c-0.3,0.8-0.6,1.7-0.9,2.5c-0.3,0.9-0.6,1.6-0.9,2.2l-0.1,0.2
			l-1.8-0.5l0.1-0.2c0.1-0.3,0.3-0.7,0.4-1.1c0.1-0.4,0.3-0.8,0.4-1.2c0.1-0.4,0.3-0.9,0.4-1.3c0.1-0.4,0.2-0.8,0.3-1.2l0.1-0.2
			l2.1,0.6L205.6,139.5L205.6,139.5z"/>
	</g>
	<rect y="0" class="st4" width="225.9" height="156"/>
</g>
</svg>
