<?xml version="1.0" encoding="UTF-8"?>
<svg id="Layer_2" data-name="Layer 2" xmlns="http://www.w3.org/2000/svg" xmlns:xlink="http://www.w3.org/1999/xlink" viewBox="0 0 225.87 156">
  <defs>
    <style>
      .cls-1 {
        fill: #fcf09e;
      }

      .cls-2 {
        fill: #f47a21;
      }

      .cls-3 {
        fill: #f47a20;
      }

      .cls-4, .cls-5 {
        fill: none;
      }

      .cls-5 {
        clip-path: url(#clippath);
      }

      .cls-6 {
        fill: #ebeea8;
      }
    </style>
    <clipPath id="clippath">
      <rect class="cls-4" x="1.73" y="1.33" width="105.51" height="104.97"/>
    </clipPath>
  </defs>
  <g id="Layer_3" data-name="Layer 3">
    <g>
      <g class="cls-5">
        <path class="cls-1" d="m98.26,72.62c-1.88-.98-4.16-.34-5.63,1.47-2.08,2.58-3.44,5.61-5.6,8.18-2.5,2.97-5.09,5.79-8.32,7.94-3.56,2.38-7.46,4.13-11.51,5.51-7.22,2.46-14.6,2.33-21.95.88-5.1-1.01-9.9-2.98-14.29-5.85-2.64-1.73-5.34-3.42-7.45-5.76-3.43-3.79-7.26-7.15-10.89-10.71-2.07-2.02-5.05-1.48-6.6.95-1.25,1.97-1.02,3.73.78,5.6,3.71,3.86,7.35,7.77,11.33,11.35,3.63,3.26,7.61,6.01,11.9,8.28,7.67,4.06,15.95,5.62,24.55,5.83,2.14-.17,4.28-.42,6.43-.51,6.28-.26,12-2.47,17.5-5.17,5.79-2.85,10.65-7.01,14.88-11.86,1.43-1.64,3.01-3.21,3.95-5.21.88-1.88,2.25-3.5,2.92-5.47.76-2.23-.1-4.45-2-5.45"/>
        <path class="cls-6" d="m50.68,9.17c3.7,3.56,7.21,7.3,10.86,10.91,4.39,4.34,8.89,8.57,12.95,13.25,3.17,3.66,5.44,7.69,6.51,12.38.49,2.13.94,4.28,1.01,6.47.09,2.93-.56,5.74-1.49,8.5-.75,2.23-1.35,4.53-2.73,6.5-1.68,2.41-3.38,4.77-5.72,6.65-2.84,2.28-5.87,4.18-9.31,5.36-3.42,1.18-4.18,1.99-4.17,4.93,0,2.75,2.54,4.73,5.24,4.09,1.13-.27,2.26-.55,3.35-.94,3.98-1.44,7.48-3.69,10.74-6.37,2.88-2.37,5.43-5.03,7.31-8.23,3.57-6.05,5.93-12.49,5.5-19.68-.06-3-.15-6.03-.88-8.97-1.87-7.52-5.56-14.04-11.06-19.52-2.88-2.87-5.77-5.73-8.64-8.62-2.12-2.14-4.19-4.35-6.32-6.49-1.67-1.67-3.41-3.26-5.09-4.9-.77-.75-1.32-1.69-2.28-2.26-1.96-1.16-5.03-1.53-6.84,1.08-1.19,1.72-.97,3.75.97,5.77.03.03.06.06.09.09"/>
        <path class="cls-1" d="m13.65,43.1c7.04,7.03,14.04,14.11,21.22,21,1.77,1.69,3.49,3.41,5.43,4.92,5.84,4.54,12.33,5.6,19.33,3.57,3.82-1.1,7.03-3.33,9.7-6.28,4.85-5.39,6.72-11.67,5.32-18.79-.97-4.94-3.71-8.98-7.12-12.58-.64-.68-1.48-1.07-2.37-1.31-2.76-.76-5.65,1.48-5.59,4.34.04,1.81,1.17,3.08,2.32,4.25,2.59,2.64,4.1,5.68,3.94,9.45-.14,2.42-.12,4.91-1.83,6.92-1.82,2.14-3.87,3.85-6.64,4.82-4.67,1.62-9.98.56-13.42-3-2.61-2.71-5.23-5.4-7.88-8.07-4.71-4.74-9.44-9.47-14.18-14.17-2.27-2.24-4.43-4.59-6.89-6.65-1.5-1.26-3.54-1.43-5.09-.46-2.59,1.63-2.97,4.83-.79,7.29,1.45,1.64,2.99,3.2,4.53,4.75"/>
        <path class="cls-1" d="m105.73,40.57c-1.37-5.6-3.6-10.82-6.69-15.66-1.38-2.15-3.01-4.13-4.68-6.09-3.83-4.5-8.18-8.47-12.33-12.64-1.17-1.18-2.62-2.11-4.47-1.56-3.4,1.02-5.06,4.06-2.07,7.61,1.92,2.28,4.11,4.32,6.24,6.39,2.86,2.78,5.66,5.57,8.11,8.71,3.17,4.07,5.33,8.64,6.93,13.5.78,2.37,1.03,4.82,1.25,7.3.25,2.94.26,5.85,0,8.78-.3,3.41.82,5.22,3.68,5.74,2.86.52,5-.96,5.27-3.64.22-2.15.24-4.29.23-6.85.21-3.68-.5-7.65-1.47-11.6"/>
        <path class="cls-6" d="m25.44,77.97c3.5,3.42,7.34,6.48,11.89,8.46,2.05.89,4.16,1.64,6,1.91,2.46,0,3.9-1.04,4.49-2.97.72-2.35-.14-4.23-2.43-5.23-.84-.36-1.71-.63-2.55-.99-2.48-1.06-4.89-2.26-7.01-3.95-4.44-3.56-8.38-7.64-12.41-11.64-4.6-4.56-9.18-9.14-13.77-13.71-.38-.38-.8-.73-1.24-1.03-1.44-.99-3.76-.86-5.11.25-1.5,1.23-1.97,2.99-1.24,4.8.44,1.09,1.19,1.98,2.02,2.81,7.11,7.1,14.16,14.26,21.36,21.27"/>
        <path class="cls-1" d="m25.52,31.16c1.87,2,3.75,3.98,5.75,5.82,1.62,1.48,3.13,3.08,4.65,4.64,4.11,4.21,8.33,8.33,12.47,12.51,1.03,1.04,2.35,1.56,3.85,1.28,1.79-.34,3.17-1.29,3.76-3.06.67-2.02-.02-3.77-1.45-5.2-10.02-10.05-20.06-20.07-30.1-30.09-.99-.99-2.17-1.66-4.13-1.63-1.42,0-3.12,1.09-3.86,2.95-.72,1.8-.27,3.42,1.08,4.78,2.66,2.67,5.4,5.26,7.97,8.01"/>
        <path class="cls-6" d="m36.1,16.89c3.79,3.78,7.52,7.62,11.33,11.38.97.96,2.12,1.85,3.63,1.56,2.01-.39,3.58-1.46,4.15-3.5.51-1.82.15-3.55-1.23-4.94-4.6-4.61-9.24-9.18-13.83-13.8-.98-.98-2.09-1.45-3.55-1.37-.86-.1-1.73.13-2.49.69-1.97,1.44-2.52,4.02-1.38,6.21.81,1.55,2.18,2.58,3.38,3.77"/>
      </g>
      <g>
        <path class="cls-3" d="m111.7,53.87c.33-.35.46-.86.42-1.54-.06-.88-.04-1.79-.03-2.67v-.92c.03-2.19-.16-2.46-2.27-2.63-.12-.08-.24-.11-.31-.11-.07,0-.19,0-.31.06l-3.54-.07c-2.19,0-4.38-.02-6.57-.05q-1.21-.02-1.21-1.22c0-3.69,0-7.38,0-11.06v-4.43c0-.41-.14-.69-.4-.83-.22-.12-.46-.1-.73.04l-6.95-.09c-.26-.04-.44.04-.55.11-.12.08-.26.24-.31.59l-.02.52c-.01.37-.02.74-.02,1.1v6.27c0,17.77,0,35.53.02,53.3,0,.53-.06.84-.2.96-.14.12-.44.12-.68.1l-.96.05c-.13-.07-.23-.08-.32-.08-.07,0-.19.02-.31.09h-2.02c-1.55.02-3.09.03-4.64.03-5.67-.01-11.33-.03-17-.05l-6.62-.02c-.1-.06-.2-.08-.28-.08-.08,0-.19,0-.31.06-.66-.01-1.13.15-1.43.49-.26.3-.36.71-.3,1.22l-.11.11.11.31c.02.05.04.1.07.16l.05,3.47c.02,1.94.25,2.16,2.21,2.16h31.05c.11.05.22.07.3.07.11,0,.2-.02.31-.08h.67s.37.19.37.19h.05c0,.05,0,.1-.01.15-.01.1-.02.2-.02.29,0,.88,0,1.76,0,2.64,0,1.58-.01,3.22.04,4.83.02.5-.05.68-.11.74-.06.06-.21.13-.75.13-8.47-.04-16.95-.03-25.43-.03h-5.84c-.43,0-.85.02-1.28.05-1.07.07-1.6.66-1.59,1.77.04,4,.04,8.01.05,12.02v2.89c.01,3.63,3.02,7.57,7.47,7.65.74.01,1.48.03,2.23.05,1.56.04,3.17.08,4.76.07,3.41-.03,6.88,0,10.23.01,2.17.01,4.36.02,6.57.02,4.19,0,8.42-.04,12.61-.22l.48-.19c.41-.18.62-.54.62-1.1l-.04-5.41-.47-.45c-.18-.18-.36-.24-.5-.25-.12,0-.29,0-.47.12-3.19,0-6.38.02-9.56.03-8.09.04-16.47.08-24.7-.13-.16-.42-.23-.77-.23-1.12,0-.88,0-1.76-.02-2.64,0-1.03-.02-2.05-.01-3.08,0-1.26.01-2.1.27-2.34.26-.25,1.15-.25,2.39-.24,3.5.02,7,0,10.5-.01,6.48-.02,13.18-.05,19.77.11.51.01,1.13-.03,1.57-.46.34-.33.5-.82.5-1.54-.04-16.96-.04-33.92-.04-50.88v-7.1q0-1.34,1.37-1.35c3.31-.02,6.63-.05,9.94-.05.3,0,.61,0,.91,0,.48,0,1.16-.06,1.6-.53Z"/>
        <path class="cls-3" d="m71.26,53.89c.42-4.72.32-9.71-3.21-14.19-3.13-3.97-6.93-6.57-11.62-7.96-.59-.18-.7-.44-.67-.8.05-.66-.04-1.27-.14-1.87-.05-.3-.09-.6-.12-.9-.06-.73-.5-1.17-1.18-1.18l-.92-.02c-1.03-.02-2.09-.04-3.14.04-.24.02-.51-.02-.81-.05-.73-.09-1.72-.22-2.36.69-.48.68-.41,1.46-.35,2.16.03.35.06.68.02.98-.07.57-.16.71-.54.8-1.84.42-3.46,1.33-5.1,2.31-7.1,4.26-10.32,9.85-10.12,17.53-.21,3.09.75,6.49,2.65,9.32,4.38,6.54,10.24,9.85,17.46,9.85,1.17,0,2.37-.09,3.61-.26,7.37-1.03,15.78-7.88,16.55-16.45Zm-8.54-5.2c.1,5.11-.97,8.85-3.17,11.1-1.86,1.9-4.5,2.82-8.14,2.83-2.63.34-5.28-.53-7.46-2.45-2.78-2.45-4.42-6.23-4.41-10.12,0-2.44,1.37-5.17,3.74-7.48,2.33-2.28,5.21-3.68,7.54-3.68.04,0,.08,0,.12,0,7.08.14,11.71,5.9,11.79,9.79Z"/>
        <path class="cls-3" d="m130.28,33.19c1.27.01,2.54,0,3.82,0,1.22,0,2.44,0,3.66,0,.21,0,.35.01.44.03-.04.07-.11.17-.21.31-.8,1.03-1.32,2.19-1.82,3.31-.19.43-.38.85-.59,1.27-1.4,2.85-1.48,5.96-.24,9.49,2.01,5.73,6.27,9.56,12.67,11.4,1.98.57,3.92.85,5.81.85,5.19,0,10.03-2.14,14.43-6.39,2.38-2.29,3.76-5.52,4.13-9.59.35-3.97-1.36-7.34-3.08-10.11-.12-.19-.28-.32-.42-.44-.07-.06-.17-.15-.19-.13.04-.06.29-.03.47-.01.17.02.33.03.49.03.97-.04,1.96-.03,2.92-.02,1.58.02,3.21.05,4.84-.19,1.38-.2,2.01-.94,1.96-2.32-.02-.68-.02-1.37-.01-2.05,0-.35,0-.69,0-1.04,0-2.35-.24-2.59-2.54-2.59-2.77,0-5.54,0-8.31,0-3.21,0-6.43,0-9.64,0-.09,0-.22,0-.33.01-.59.04-.59,0-.63-.27l-.03-1.14c0-.63-.01-1.26-.03-1.88-.01-.38.01-.76.03-1.14.05-.86.1-1.75-.21-2.66-.06-.33-.26-.46-.38-.51-.09-.04-.27-.08-.47.01l-.96-.07-4.22.12c-2.26.07-2.6.42-2.63,2.73,0,.59.03,1.18.06,1.77.06,1.05.12,2.05-.05,3.04,0,0,0,0,0,0-.12.03-.28.02-.48.01-.11,0-.21-.01-.31-.01h-8.14c-3.19-.02-6.37-.03-9.56-.03-1.17,0-1.87,0-2.31.44-.44.44-.44,1.13-.44,2.28v2.99c0,2.03.47,2.5,2.51,2.51Zm15.59,4.31c1.97-2.01,4.22-3.03,6.69-3.03.24,0,.48,0,.72.03.38.03.77.05,1.16.06,1.3.06,2.53.11,3.67.67,3.28,1.63,4.91,3.93,5.12,7.26.22,3.43-.78,5.83-3.13,7.54-2.09,1.52-4.42,2.13-7.81,2.02-2.14-.2-6.04-1.19-8.04-5.57-1.47-3.22-.89-6.41,1.62-8.98Z"/>
        <path class="cls-3" d="m175.3,87.48c-.46-.78-1.21-.79-1.78-.78l-.09.5v-.5c-13.31,0-26.61,0-39.92,0h-.17c-.44-.02-1.2-.04-1.58.77l-.08.4c-.22,1.63-.17,3.27-.12,4.86.02.6.04,1.19.04,1.79.02,2.14-.01,4.32-.04,6.43-.06,4.42-.12,9,.24,13.49.3,3.74,2.89,6.52,6.62,7.09,1.07.16,2.22.24,3.51.24h.04c7.52,0,15.04,0,22.56,0h.05c1.44,0,2.78-.08,4.11-.26,2.66-.35,5.84-3.16,6.19-5.46.29-1.94.44-3.86.44-5.73,0-5.59.02-11.18.03-16.77v-5.38s0-.6,0-.6l-.07-.11Zm-34.86,25.45l-.03-4.9c-.02-3.92-.04-7.84-.1-11.77,0-.46.07-.78.24-.94.18-.18.51-.26,1.06-.25,2.74.04,5.49.06,8.23.06h2.82c4.22.01,8.59.02,12.89-.03.4-.01.66.05.76.15s.15.35.15.77c-.01,5.3,0,10.83.06,16.92,0,.28-.06.34-.06.34,0,0-.05.05-.3.05-.4,0-.8,0-1.2,0h-.91s-6.43,0-6.43,0c-5,0-10,0-15.01,0-.48,0-.96-.02-1.44-.04l-.55-.02-.13-.06s-.05-.08-.05-.28Z"/>
        <path class="cls-3" d="m197.56,71.71c0-.41,0-.82-.03-1.23h0c-.13-1.68-.65-2.17-2.31-2.19-.86-.01-1.72-.02-2.58-.03l-2.05-.02-.37.03c-.24.02-.47.04-.71.04-24.74,0-49.48,0-74.22,0-.27,0-.54-.02-.82-.04l-.43-.03c-.26,0-.52,0-.78.02-.57.02-1.12.03-1.66-.01-.64-.05-1.13.09-1.47.41-.36.34-.53.85-.51,1.57l.02.88c.01.7.03,1.4.03,2.1.01,2.88.21,3.15,2.93,3.35.13.08.25.1.33.11,0,0,.01,0,.02,0,.08,0,.19-.02.31-.08l6.02.02c4.54.02,9.08.04,13.62.03,21.51-.02,40.92-.03,60.55-.09.42,0,.79,0,1.11.02,2.57.07,2.76-.39,3.03-4.03v-.31s0-.52,0-.52Z"/>
      </g>
      <path class="cls-2" d="m215.25,102.87h-7.76v1.95h7.76v-1.95Zm-6.89,13.87h4.84c-.3-.35-.71-.76-1.2-1.2-.44-.39-.89-.77-1.34-1.14-.3.44-.64.86-1,1.25-.4.42-.83.78-1.3,1.09Zm-1.45-.92v.92h.99c-.14-.14-.3-.29-.49-.48-.18-.17-.34-.31-.5-.44Zm0-.5c.41-.27.8-.59,1.15-.94.37-.38.69-.79.96-1.23.27-.44.51-.9.71-1.37.19-.46.33-.93.42-1.38h-2.81c-.18.21-.35.41-.53.62-.07.08-.15.17-.22.25h.32v4.06Zm-9.66,2.3h3.46v-4.08h-3.46v4.08Zm17.99-18.67h-7.76v1.93h7.76v-1.93Zm2.99-6.43h-23.85c-3.36,0-6.08,2.72-6.08,6.08v49.74c0,3.36,2.72,6.08,6.08,6.08h23.85c3.36,0,6.08-2.72,6.08-6.08v-49.74c0-3.36-2.72-6.08-6.08-6.08Zm-13.1,14.4v-10.05h12.55v10.05h-8.02c-.13.27-.27.54-.42.8-.1.18-.21.36-.32.53h10v1.11c-.09,1.87-.18,3.44-.26,4.73-.08,1.29-.18,2.37-.29,3.22-.11.85-.24,1.53-.38,2.01-.15.51-.32.88-.52,1.12-.26.3-.53.52-.82.65-.28.13-.62.21-1.03.25-.28.03-.63.04-1.06.04-.1,0-.21,0-.33,0-.57,0-1.17-.03-1.81-.07h-.21s-.01-.22-.01-.22c-.02-.25-.07-.54-.17-.86-.09-.31-.21-.58-.36-.79l-.29-.41.5.04c.63.05,1.21.09,1.73.09.96.02,1.36.04,1.6-.03.08-.02.17-.09.27-.2.07-.08.18-.27.31-.7.11-.37.2-.9.28-1.59.08-.69.16-1.55.23-2.63.07-1,.13-2.21.18-3.61h-4.97l.82.15-.07.25c-.09.35-.21.71-.33,1.06-.11.3-.23.6-.37.91.24.18.49.37.75.57.31.24.61.47.89.7.29.23.55.46.8.69.25.23.46.44.65.62l.17.17-1.24,1.24h1.49v2.16h-8.16v1.47h-2.27v-7.3c-.07.06-.14.11-.2.17-.19.16-.39.31-.6.46l-.19.14-.14-.19c-.1-.14-.25-.3-.43-.48-.06-.06-.12-.12-.18-.18v6.72h-5.65v1.28h-2.19v-9.61l7.84.02c.79-.59,1.54-1.27,2.24-2.03.71-.78,1.33-1.61,1.86-2.48h-1.87Zm-2.23.84v2.11h-7.81v-2.11h7.81Zm-7.81-1.52v-2.08h7.81v2.08h-7.81Zm.16-9.34h7.54v2.11h-7.54v-2.11Zm-1.31,3.57h9.72v2.14h-9.72v-2.14Zm25.5,47.69c-.17.19-.39.46-.64.81-.25.35-.45.64-.59.87l-.13.21-.2-.14c-1.03-.7-1.92-1.54-2.65-2.49-.72-.95-1.32-1.92-1.78-2.9-.47-.98-.83-1.93-1.06-2.81-.1-.36-.18-.69-.25-1-.08.32-.18.67-.29,1.04-.27.88-.67,1.82-1.19,2.79-.53.97-1.2,1.93-2.02,2.88-.82.95-1.84,1.8-3.02,2.52l-.22.13-.11-.23c-.05-.1-.12-.22-.22-.35-.1-.14-.2-.29-.31-.45-.11-.15-.22-.3-.32-.45-.1-.14-.19-.24-.28-.33l-.21-.21.26-.16c.63-.38,1.2-.8,1.73-1.24-.95.19-1.91.39-2.87.58l-2.92.59c-.95.19-1.87.37-2.76.55-.89.17-1.72.33-2.48.48l-.23.04-.47-2.43.24-.04c.67-.11,1.41-.23,2.22-.37.75-.13,1.54-.26,2.38-.41v-7.56h-4.58v-2.22h4.58v-2.31h-2.84v-1.13c-.32.3-.66.59-1.01.86l-.2.16-.14-.21c-.14-.21-.34-.44-.6-.7-.26-.26-.49-.46-.68-.6l-.26-.19.25-.19c1.34-1.02,2.49-2.15,3.42-3.36.93-1.22,1.67-2.38,2.18-3.45l.06-.13h2.15l.07.07c.46.44.93.93,1.4,1.44.47.52.94,1.04,1.39,1.56.45.52.88,1.03,1.26,1.53.38.49.72.95.99,1.35l.11.16-1.83,1.76-.16-.25v1.34h-3.33v2.31h3.82l.05-.08c.43-.66.81-1.41,1.15-2.22.34-.82.65-1.72.92-2.66.27-.95.5-1.95.69-2.98.19-1.04.36-2.1.5-3.17l.03-.24,2.52.4-.04.23c-.13.8-.26,1.59-.41,2.35-.13.66-.27,1.32-.42,1.98h7l.4-.12,1.59.62-.04.19c-.11.6-.24,1.24-.38,1.88-.15.65-.31,1.3-.48,1.91-.17.62-.35,1.22-.53,1.78-.18.57-.38,1.09-.58,1.55l-.1.23-1.94-1,.07-.2c.23-.63.46-1.37.67-2.2.19-.75.36-1.51.49-2.28h-2.95v3.58c0,.36.03.84.08,1.42.05.58.16,1.25.32,1.97.16.73.39,1.51.67,2.33.29.82.66,1.64,1.1,2.43.44.79.99,1.56,1.62,2.29h0c.63.72,1.38,1.38,2.23,1.95l.23.15-.19.2Zm-24.45-8.79l1.91-.46.08.19c.17.41.32.84.46,1.27.14.44.26.89.37,1.34.11.45.2.89.26,1.32.06.42.11.81.15,1.16l.02.2-2.02.53-.03-.27c-.03-.34-.08-.72-.15-1.13-.06-.42-.15-.84-.26-1.27-.11-.44-.23-.89-.35-1.33-.13-.44-.25-.87-.38-1.29l-.07-.24Zm8.85-8.37c-.31-.45-.66-.91-1.03-1.38-.37-.47-.77-.95-1.17-1.41-.33-.38-.67-.75-1-1.11-.44.67-.94,1.39-1.5,2.12-.53.69-1.14,1.4-1.81,2.09h6.72c-.07-.1-.14-.2-.22-.31Zm4.7,3.67c-.38.94-.8,1.81-1.26,2.58l-.16.26-.21-.21c-.18-.17-.43-.39-.77-.63-.11-.08-.21-.15-.31-.21v1.6h-4.53v7.14c.69-.13,1.39-.26,2.09-.4.8-.15,1.6-.31,2.4-.48l.26-.05.16,2.12c.57-.51,1.07-1.05,1.5-1.62.88-1.2,1.57-2.41,2.04-3.61.47-1.21.79-2.34.94-3.37.15-1.04.23-1.85.23-2.39v-3.58h-1.41c-.3,1.02-.63,1.98-.98,2.86Zm-2.93,4.83c-.29.82-.59,1.66-.9,2.51-.31.86-.62,1.61-.91,2.23l-.09.18-1.83-.54.09-.24c.13-.33.26-.69.41-1.09.14-.4.28-.81.42-1.24.14-.43.26-.86.38-1.28.12-.41.22-.8.31-1.17l.06-.24,2.14.63-.08.23Z"/>
    </g>
    <rect class="cls-4" width="225.87" height="156"/>
  </g>
</svg>