<svg width="44" height="44" viewBox="0 0 44 44" fill="none" xmlns="http://www.w3.org/2000/svg">
<path d="M10.4214 23.7712V30.0737C10.4214 35.3246 15.6027 38.842 22.0004 38.842C28.3982 38.842 33.5794 35.3246 33.5794 30.0737L33.5794 23.375L22.0004 30.0737L10.4214 23.7712Z" fill="#8F9AAB"/>
<path fill-rule="evenodd" clip-rule="evenodd" d="M36.04 26.053L36.04 16.3656L38.04 16.3656L38.04 26.053H36.04Z" fill="#6A7685"/>
<path d="M37.0401 28.3608C38.3146 28.3608 39.3478 27.3276 39.3478 26.0531C39.3478 24.7786 38.3146 23.7454 37.0401 23.7454C35.7656 23.7454 34.7324 24.7786 34.7324 26.0531C34.7324 27.3276 35.7656 28.3608 37.0401 28.3608Z" fill="#6A7685"/>
<path fill-rule="evenodd" clip-rule="evenodd" d="M10.4214 22.4052V25.7405C10.4214 31.1296 15.6026 34.7396 22.0003 34.7396C28.398 34.7396 33.5793 31.1296 33.5793 25.7405V22.4047L23.9347 27.7346C22.7306 28.4 21.2692 28.4 20.0652 27.7346L10.4214 22.4052Z" fill="#6A7685"/>
<path d="M5.16739 14.4602L20.0651 6.22724C21.2691 5.56187 22.7306 5.56187 23.9346 6.22724L38.8323 14.4602C40.2092 15.2211 40.2091 17.2003 38.8323 17.9612L23.9346 26.1941C22.7306 26.8595 21.2691 26.8595 20.0651 26.1941L5.16739 17.9612C3.79056 17.2003 3.79056 15.2211 5.16739 14.4602Z" fill="#C7CED6"/>
</svg>
