<svg width="44" height="44" viewBox="0 0 44 44" fill="none" xmlns="http://www.w3.org/2000/svg">
<path d="M30 5H15V12H30V5Z" fill="#116CF4"/>
<path d="M9.06266 9.71539L6.7812 11.2364C5.6684 11.9782 5 13.2272 5 14.5646V35.4238C5 37.633 6.79086 39.4238 9 39.4238H35C37.2091 39.4238 39 37.633 39 35.4238V14.5646C39 13.2272 38.3316 11.9782 37.2188 11.2364L35.3354 9.98078L29.4588 14.9118C28.2675 15.9115 26.7768 16.3198 25.3434 16.1679H19.773C18.2203 16.4488 16.5587 16.0054 15.2555 14.9118L9.06266 9.71539Z" fill="#70A7F8"/>
<path d="M23.1185 19.7998H21.8799C21.4761 19.7998 21.1356 20.1007 21.086 20.5015L19.8063 30.8316C19.7392 31.3729 19.9417 31.9127 20.3482 32.2763L21.39 33.2081C22.0216 33.773 22.9768 33.773 23.6084 33.2081L24.6502 32.2763C25.0567 31.9127 25.2592 31.3729 25.1922 30.8316L23.9125 20.5015C23.8628 20.1007 23.5223 19.7998 23.1185 19.7998Z" fill="#465162"/>
<path d="M24.8993 20.8422L25.9379 17.5706C26.2378 16.6259 25.6504 15.6301 24.6784 15.4357L23.8052 15.2611C22.9436 15.0887 22.0564 15.0887 21.1948 15.2611L20.3216 15.4357C19.3496 15.6301 18.7622 16.6259 19.0621 17.5706L20.1007 20.8422C20.2061 21.1745 20.5146 21.4002 20.8632 21.4002H24.1368C24.4854 21.4002 24.7939 21.1745 24.8993 20.8422Z" fill="#465162"/>
<path d="M33.2146 8.42141L30.6434 5.35724C30.2884 4.93416 29.6577 4.87898 29.2346 5.23398L23.0004 10.4651C22.6286 10.7771 22.0866 10.7771 21.7148 10.4651L15.4806 5.23398C15.0575 4.87898 14.4267 4.93416 14.0717 5.35724L11.5006 8.42141C11.1456 8.84449 11.2008 9.47524 11.6238 9.83025L16.2201 13.687C17.9124 15.107 20.4354 14.8862 21.8554 13.1939L22.3576 12.5955L22.8597 13.1939C24.2797 14.8862 26.8028 15.107 28.4951 13.687L33.0913 9.83025C33.5144 9.47524 33.5696 8.84449 33.2146 8.42141Z" fill="#4189F6"/>
</svg>
