<svg width="44" height="44" viewBox="0 0 44 44" fill="none" xmlns="http://www.w3.org/2000/svg">
<path d="M10 11.5C10 10.6716 10.6716 10 11.5 10C12.3284 10 13 10.6716 13 11.5V20.5C13 21.3284 12.3284 22 11.5 22C10.6716 22 10 21.3284 10 20.5V11.5Z" fill="#8F9AAB"/>
<path d="M31 11.5C31 10.6716 31.6716 10 32.5 10C33.3284 10 34 10.6716 34 11.5V20.5C34 21.3284 33.3284 22 32.5 22C31.6716 22 31 21.3284 31 20.5V11.5Z" fill="#8F9AAB"/>
<path d="M7 12C7 10.8954 7.89543 10 9 10H35C36.1046 10 37 10.8954 37 12C37 13.1046 36.1046 14 35 14H9C7.89543 14 7 13.1046 7 12Z" fill="#C7CED6"/>
<path d="M20 7C20 5.89543 20.8954 5 22 5C23.1046 5 24 5.89543 24 7V36C24 37.1046 23.1046 38 22 38C20.8954 38 20 37.1046 20 36V7Z" fill="#C7CED6"/>
<path d="M14 37C14 35.8954 14.8954 35 16 35H29C30.1046 35 31 35.8954 31 37C31 38.1046 30.1046 39 29 39H16C14.8954 39 14 38.1046 14 37Z" fill="#C7CED6"/>
<path d="M5 20C5 19.4477 5.44772 19 6 19H17C17.5523 19 18 19.4477 18 20C18 22.2091 16.2091 24 14 24H9C6.79086 24 5 22.2091 5 20Z" fill="#6A7685"/>
<path d="M26 20C26 19.4477 26.4477 19 27 19H38C38.5523 19 39 19.4477 39 20C39 22.2091 37.2091 24 35 24H30C27.7909 24 26 22.2091 26 20Z" fill="#6A7685"/>
</svg>
