<svg width="44" height="44" viewBox="0 0 44 44" fill="none" xmlns="http://www.w3.org/2000/svg">
<path fill-rule="evenodd" clip-rule="evenodd" d="M8.29441 20.22C9.03417 18.056 11.0854 16.4999 13.5 16.4999C15.9146 16.4999 17.9658 18.056 18.7056 20.22C20.71 18.665 22 16.2331 22 13.4999C22 9.4944 19.2294 6.13598 15.5 5.23657V11.9999C15.5 13.1045 14.6046 13.9999 13.5 13.9999C12.3954 13.9999 11.5 13.1045 11.5 11.9999V5.23657C7.77063 6.13598 5 9.4944 5 13.4999C5 16.2331 6.29002 18.665 8.29441 20.22Z" fill="#AAB4BF"/>
<path d="M9.5 21.9999C9.5 19.7908 11.2909 17.9999 13.5 17.9999C15.7091 17.9999 17.5 19.7908 17.5 21.9999V34.9999C17.5 37.2091 15.7091 38.9999 13.5 38.9999C11.2909 38.9999 9.5 37.2091 9.5 34.9999V21.9999Z" fill="#5D697A"/>
<path d="M26.4429 22.6465H30.4429H34.4429V35.1465C34.4429 37.3556 32.652 39.1465 30.4429 39.1465C28.2337 39.1465 26.4429 37.3556 26.4429 35.1465V22.6465Z" fill="#5D697A"/>
<path d="M23 7C23 5.89543 23.8954 5 25 5H31.6154C35.6938 5 39 8.3062 39 12.3846C39 12.7245 38.7245 13 38.3846 13H34.943C34.6669 13 34.443 13.2239 34.443 13.5V21H26.443V13.5C26.443 13.2239 26.2191 13 25.943 13H25C23.8954 13 23 12.1046 23 11V7Z" fill="#AAB4BF"/>
</svg>
