<svg width="44" height="44" viewBox="0 0 44 44" fill="none" xmlns="http://www.w3.org/2000/svg">
<path fill-rule="evenodd" clip-rule="evenodd" d="M16.9277 9.73636L16.9278 11.9516L13.9278 11.9516L13.9277 9.30423L13.9574 9.15719C14.1659 8.1252 14.9013 7.40428 15.6508 6.9774C16.418 6.54048 17.3528 6.31213 18.3106 6.31213H25.6899C26.6477 6.31213 27.5825 6.54048 28.3497 6.9774C29.0992 7.40428 29.8346 8.1252 30.0431 9.15719L30.0728 9.30422V11.9516H27.0728V9.73636C27.0378 9.70013 26.9747 9.64675 26.865 9.58426C26.603 9.43503 26.1913 9.31213 25.6899 9.31213H18.3106C17.8092 9.31213 17.3975 9.43503 17.1355 9.58426C17.0258 9.64675 16.9627 9.70013 16.9277 9.73636Z" fill="#773900"/>
<path d="M38.4999 27.9521L38.4999 19.63L38.5 32.1879C38.5 34.397 36.7091 36.1879 34.5 36.1879H9.5C7.29086 36.1879 5.5 34.397 5.5 32.1879V27.9521L38.4999 27.9521Z" fill="#E46D00"/>
<path d="M38.5 26.3913L22 26.3917L5.50001 26.3913L5.50001 15.9542C5.50001 13.7451 7.29087 11.9542 9.50001 11.9542L34.5 11.9542C36.7091 11.9542 38.5 13.7451 38.5 15.9542L38.5 26.3913Z" fill="#FFAE64"/>
<path d="M23 24.4354C23.5523 24.4354 24 24.8831 24 25.4354L24 29.4354C24 29.9877 23.5523 30.4354 23 30.4354L21 30.4354C20.4477 30.4354 20 29.9877 20 29.4354L20 25.4354C20 24.8831 20.4477 24.4354 21 24.4354L23 24.4354Z" fill="#773900"/>
</svg>
