<svg width="44" height="44" viewBox="0 0 44 44" fill="none" xmlns="http://www.w3.org/2000/svg">
<path d="M6 17.52L38 17.52V31.9805C38 34.1896 36.2091 35.9805 34 35.9805H10C7.79086 35.9805 6 34.1896 6 31.9805V17.52Z" fill="#E0E5EB"/>
<path d="M38 16.0195L6 16.0195L6 12.0195C6 9.81039 7.79086 8.01953 10 8.01953L34 8.01953C36.2091 8.01953 38 9.81039 38 12.0195V16.0195Z" fill="#E5333D"/>
<path d="M16.5332 12.0195C16.5332 13.1241 15.6378 14.0195 14.5332 14.0195C13.4286 14.0195 12.5332 13.1241 12.5332 12.0195C12.5332 10.915 13.4286 10.0195 14.5332 10.0195C15.6378 10.0195 16.5332 10.915 16.5332 12.0195Z" fill="#E0E5EB"/>
<path d="M31.4668 12.0195C31.4668 13.1241 30.5714 14.0195 29.4668 14.0195C28.3622 14.0195 27.4668 13.1241 27.4668 12.0195C27.4668 10.915 28.3622 10.0195 29.4668 10.0195C30.5714 10.0195 31.4668 10.915 31.4668 12.0195Z" fill="#E0E5EB"/>
<path d="M22.9317 22.6029L23.7043 24.2325C23.7356 24.2976 23.7983 24.3411 23.8714 24.352L25.6046 24.6127C26.4608 24.743 26.8053 25.8403 26.1789 26.4704L24.9259 27.7414C24.9259 27.7414 24.8528 27.8718 24.8633 27.9369L25.1556 29.7294C25.3018 30.6202 24.4039 31.2938 23.6417 30.8701L22.0964 30.0227C22.0337 29.9901 21.9607 29.9901 21.898 30.0227L20.3527 30.8701C19.5905 31.2938 18.6926 30.6094 18.8388 29.7294L19.1311 27.9369C19.1415 27.8609 19.1207 27.7848 19.0685 27.7414L17.8155 26.4704C17.1995 25.8403 17.5336 24.743 18.3898 24.6127L20.123 24.352C20.1961 24.352 20.2587 24.2976 20.2901 24.2325L21.0627 22.6029C21.449 21.799 22.5558 21.799 22.9317 22.6029Z" fill="#E5333D"/>
</svg>
