<svg width="44" height="44" viewBox="0 0 44 44" fill="none" xmlns="http://www.w3.org/2000/svg">
<path d="M18 33C18 35.7614 15.7614 38 13 38C10.2386 38 8 35.7614 8 33C8 30.2386 10.2386 28 13 28C15.7614 28 18 30.2386 18 33Z" fill="#6A7685"/>
<path d="M29 15C27.8954 15 27 15.8954 27 17V33.5H27.6C28.0633 31.2178 30.081 29.5 32.5 29.5C34.9054 29.5 36.914 31.1985 37.392 33.4616C38.3089 33.2794 39 32.4704 39 31.5V25.1461C39 24.556 38.8694 23.9732 38.6177 23.4395L35.1773 16.1467C34.8471 15.4466 34.1425 15 33.3685 15H29Z" fill="#C7CED6"/>
<path d="M7 8.5C5.89543 8.5 5 9.39543 5 10.5V31.5C5 32.4372 5.64464 33.2239 6.51471 33.4407C6.50496 33.2951 6.5 33.1481 6.5 33C6.5 29.4101 9.41015 26.5 13 26.5C16.5899 26.5 19.5 29.4101 19.5 33C19.5 33.1682 19.4936 33.335 19.4811 33.5H27V10.5C27 9.39543 26.1046 8.5 25 8.5H7Z" fill="#4189F6"/>
<path d="M29 18C29 17.4477 29.4477 17 30 17H32.882C33.2607 17 33.607 17.214 33.7764 17.5528L35.7764 21.5528C36.1088 22.2177 35.6253 23 34.882 23H30C29.4477 23 29 22.5523 29 22V18Z" fill="#6A7685"/>
<path d="M36 34.5C36 36.433 34.433 38 32.5 38C30.567 38 29 36.433 29 34.5C29 32.567 30.567 31 32.5 31C34.433 31 36 32.567 36 34.5Z" fill="#6A7685"/>
</svg>
