<svg width="44" height="44" viewBox="0 0 44 44" fill="none" xmlns="http://www.w3.org/2000/svg">
<path d="M6.76611 15.6723C6.76611 12.556 9.29237 10.0297 12.4087 10.0297H23.9759C27.0922 10.0297 29.6185 12.556 29.6185 15.6723V26.1513C29.6185 29.2676 27.0922 31.7939 23.9759 31.7939H12.4087C9.29237 31.7939 6.76611 29.2676 6.76611 26.1513V15.6723Z" fill="#A166F5"/>
<path fill-rule="evenodd" clip-rule="evenodd" d="M3.50146 20.4684C3.50146 18.9103 4.76459 17.6472 6.32274 17.6472H8.29764C8.33137 17.6472 8.36496 17.6477 8.3984 17.6489C8.43184 17.6477 8.46543 17.6472 8.49916 17.6472H9.38586C10.944 17.6472 12.2071 18.9103 12.2071 20.4684V25.8087H24.1774V20.4684C24.1774 18.9103 25.4405 17.6472 26.9987 17.6472H27.8854C27.9191 17.6472 27.9527 17.6477 27.9861 17.6489C28.0196 17.6477 28.0532 17.6472 28.0869 17.6472H30.0618C31.6199 17.6472 32.8831 18.9103 32.8831 20.4684V22.4433C32.8831 23.7796 31.9541 24.8989 30.7067 25.1906V28.63L30.7067 30.0608L30.7067 30.0641V33.8695C30.7067 35.4277 29.4435 36.6908 27.8854 36.6908H8.49916C6.94101 36.6908 5.67788 35.4277 5.67788 33.8695V30.0608V28.63V25.1906C4.43049 24.8989 3.50146 23.7796 3.50146 22.4433V20.4684Z" fill="#C099F8"/>
<path d="M32.4868 8.43204C32.6232 7.77795 33.1997 7.3092 33.8678 7.3092H38.1885C38.8567 7.3092 39.4332 7.77795 39.5695 8.43204L40.4514 12.664C40.634 13.54 39.9653 14.3624 39.0705 14.3624H32.9859C32.091 14.3624 31.4223 13.54 31.6049 12.664L32.4868 8.43204Z" fill="#FFAE64"/>
<path d="M35.6038 16.7001C35.6038 16.3105 35.9195 15.9947 36.3091 15.9947C36.6986 15.9947 37.0144 16.3105 37.0144 16.7001V34.8772C37.0144 35.2667 36.6986 35.5825 36.3091 35.5825C35.9195 35.5825 35.6038 35.2667 35.6038 34.8772V16.7001Z" fill="#FFAE64"/>
<path d="M32.8832 34.5144C32.8832 33.3124 33.8577 32.338 35.0597 32.338H37.2361C38.4381 32.338 39.4125 33.3124 39.4125 34.5144C39.4125 35.7164 38.4381 36.6908 37.2361 36.6908H35.0597C33.8577 36.6908 32.8832 35.7164 32.8832 34.5144Z" fill="#FFAE64"/>
</svg>
