<svg width="44" height="44" viewBox="0 0 44 44" fill="none" xmlns="http://www.w3.org/2000/svg">
<path d="M6.11768 32.551V35.2353C6.11768 35.8201 6.59173 36.2941 7.1765 36.2941H13.5294C14.1142 36.2941 14.5883 35.8201 14.5883 35.2353V33.1176H8.23532C7.46389 33.1176 6.74063 32.9114 6.11768 32.551Z" fill="#465162"/>
<path d="M29.4116 33.1176V35.2353C29.4116 35.8201 29.8857 36.2941 30.4704 36.2941H36.8234C37.4082 36.2941 37.8822 35.8201 37.8822 35.2353V32.551C37.2593 32.9114 36.536 33.1176 35.7646 33.1176H29.4116Z" fill="#465162"/>
<circle cx="9.29392" cy="23.0588" r="2.11765" fill="white"/>
<path fill-rule="evenodd" clip-rule="evenodd" d="M35.8517 12.6927L37.9225 19.9205C38.6009 22.2885 36.8232 24.647 34.3599 24.647H9.64007C7.17684 24.647 5.39909 22.2885 6.07752 19.9205L8.1483 12.6927C8.99411 9.74047 11.6935 7.70587 14.7645 7.70587H29.2355C32.3065 7.70587 35.0059 9.74048 35.8517 12.6927ZM14.7645 10.3529C12.8746 10.3529 11.2135 11.605 10.693 13.4217L8.6222 20.6495C8.42836 21.3261 8.93629 22 9.64007 22H34.3599C35.0637 22 35.5716 21.3261 35.3778 20.6495L33.307 13.4217C32.7865 11.605 31.1254 10.3529 29.2355 10.3529H14.7645Z" fill="#EA5C64"/>
<path d="M34.7059 15.647H38.4118C39.2889 15.647 40 16.3581 40 17.2353C40 18.1124 39.2889 18.8235 38.4118 18.8235H34.7059V15.647Z" fill="#EA5C64"/>
<path d="M9.29412 15.647H5.58824C4.71108 15.647 4 16.3581 4 17.2353C4 18.1124 4.71108 18.8235 5.58824 18.8235H9.29412V15.647Z" fill="#EA5C64"/>
<path d="M4 21.2227C4 20.9703 4.09016 20.7262 4.25423 20.5344L7.21244 17.0764C7.4136 16.8413 7.70757 16.7059 8.01703 16.7059H35.983C36.2924 16.7059 36.5864 16.8413 36.7876 17.0764L39.7458 20.5344C39.9098 20.7262 40 20.9703 40 21.2227V27.2941C40 29.6332 38.1038 31.5294 35.7647 31.5294H8.23529C5.89621 31.5294 4 29.6332 4 27.2941V21.2227Z" fill="#EA5C64"/>
<circle cx="9.29392" cy="23.0588" r="2.11765" fill="#E0E5EB"/>
<circle cx="34.706" cy="23.0588" r="2.11765" fill="#E0E5EB"/>
<path d="M15.647 25.1764C15.647 24.5917 16.121 24.1176 16.7058 24.1176H27.294C27.8788 24.1176 28.3529 24.5917 28.3529 25.1764V26.2353C28.3529 26.82 27.8788 27.2941 27.294 27.2941H16.7058C16.121 27.2941 15.647 26.82 15.647 26.2353V25.1764Z" fill="#EFF1F5"/>
</svg>
