<svg width="32" height="33" viewBox="0 0 32 33" fill="none" xmlns="http://www.w3.org/2000/svg">
<path d="M4.80005 7.69999C4.80005 6.3745 5.87457 5.29999 7.20005 5.29999H12.4C13.7255 5.29999 14.8 6.3745 14.8 7.69999V12.9C14.8 14.2255 13.7255 15.3 12.4 15.3H7.20005C5.87457 15.3 4.80005 14.2255 4.80005 12.9V7.69999Z" fill="#C7CED6"/>
<path d="M17.2 7.69999C17.2 6.3745 18.2745 5.29999 19.6 5.29999H24.8C26.1254 5.29999 27.2 6.3745 27.2 7.69999V12.9C27.2 14.2255 26.1254 15.3 24.8 15.3H19.6C18.2745 15.3 17.2 14.2255 17.2 12.9V7.69999Z" fill="#8F9AAB"/>
<path d="M4.80005 20.1C4.80005 18.7745 5.87457 17.7 7.20005 17.7H12.4C13.7255 17.7 14.8 18.7745 14.8 20.1V25.3C14.8 26.6255 13.7255 27.7 12.4 27.7H7.20005C5.87457 27.7 4.80005 26.6255 4.80005 25.3V20.1Z" fill="#8F9AAB"/>
<path d="M17.2 20.1C17.2 18.7745 18.2745 17.7 19.6 17.7H24.8C26.1254 17.7 27.2 18.7745 27.2 20.1V25.3C27.2 26.6255 26.1254 27.7 24.8 27.7H19.6C18.2745 27.7 17.2 26.6255 17.2 25.3V20.1Z" fill="#5D697A"/>
</svg>
