<svg width="44" height="44" viewBox="0 0 44 44" fill="none" xmlns="http://www.w3.org/2000/svg">
<path d="M33.8946 10.0401C30.7295 6.90591 26.454 5.14974 21.9997 5.15431H21.8248C17.3466 5.20038 13.0674 7.01174 9.9171 10.1948C6.76677 13.3779 4.99976 17.6756 5 22.154C5 29.1827 9.34473 35.0771 16.3375 37.5469C17.1262 37.825 17.9701 37.9099 18.7984 37.7945C19.6267 37.6791 20.4152 37.3668 21.0979 36.8838C21.7806 36.4008 22.3375 35.7611 22.7219 35.0184C23.1064 34.2757 23.3071 33.4517 23.3074 32.6154C23.3074 31.9217 23.5829 31.2565 24.0734 30.7661C24.5639 30.2756 25.2291 30 25.9227 30H33.4761C34.6627 30.0058 35.8154 29.6055 36.7431 28.8658C37.6708 28.126 38.3176 27.0912 38.576 25.9332C38.8683 24.6463 39.0104 23.3298 38.9994 22.0102C38.9828 19.7764 38.523 17.5682 37.6467 15.5135C36.7704 13.4588 35.4951 11.5984 33.8946 10.0401Z" fill="#FFCD00"/>
<ellipse cx="14.8073" cy="16.2693" rx="3.26917" ry="3.26918" fill="#EA5C64"/>
<ellipse cx="23.9611" cy="12.3463" rx="3.26917" ry="3.26918" fill="#4189F6"/>
<ellipse cx="31.8073" cy="18.8847" rx="3.26917" ry="3.26918" fill="#5ACE74"/>
<ellipse cx="13.4996" cy="25.423" rx="3.26917" ry="3.26918" fill="#FF7A00"/>
</svg>
