<svg width="44" height="44" viewBox="0 0 44 44" fill="none" xmlns="http://www.w3.org/2000/svg">
<path d="M10.588 25.2018L19.0733 33.6871L9.40954 36.7512L7.52393 34.8656L10.588 25.2018Z" fill="#FFF4CF"/>
<path d="M8.65866 30.9902L13.23 35.5616L9.77744 36.7941C9.28096 36.9714 8.72679 36.8467 8.35402 36.4739L7.74632 35.8662C7.37355 35.4935 7.2489 34.9393 7.42614 34.4428L8.65866 30.9902Z" fill="#465162"/>
<path d="M25.437 10.3526L33.9223 18.8379L19.0732 33.6872L10.5879 25.2019L25.437 10.3526Z" fill="#1DAE3D"/>
<path d="M27.7506 8.03939C28.8162 6.97377 30.5439 6.97377 31.6095 8.03937L36.2358 12.6658C37.3014 13.7314 37.3014 15.4591 36.2358 16.5247L34.9833 17.7772L26.498 9.29192L27.7506 8.03939Z" fill="#465162"/>
</svg>
